<svg xmlns="http://www.w3.org/2000/svg" width="3283" height="2571" viewBox="0 0 3283 2571" fill="none"><path d="M1000.23 2570.43C1031.51 2309.09 1126.73 1581.36 906.402 1438.18C730.559 1324.19 335.086 1312.37 182.179 1486.14C29.2722 1659.9 -66.6421 2263.91 208.59 2529.42C232.222 2552.36 269.753 2554.44 303.115 2551.66C336.476 2548.88 391.384 2532.9 414.32 2520.39" fill="#E7F0F6"></path><path d="M1003.71 2570.43H996.761L999.541 2547.49C1031.51 2282.68 1117 1579.97 904.318 1442.35C738.205 1333.92 341.342 1311.68 184.96 1488.92C109.202 1574.41 50.819 1772.5 41.089 1970.59C34.833 2111 48.039 2370.25 210.676 2527.34C229.442 2545.41 259.328 2552.36 302.42 2548.88C340.602 2544.39 377.87 2534.08 412.93 2518.3L415.711 2524.56C379.954 2540.42 341.985 2550.73 303.115 2555.14C257.938 2558.62 225.967 2550.97 205.811 2531.51C41.089 2372.34 27.883 2111 34.1383 1969.2C43.869 1769.72 103.641 1570.24 179.4 1484.05C255.158 1397.86 379.569 1356.16 535.951 1350.6C678.432 1346.43 820.914 1379.1 908.488 1435.4C1123.95 1575.8 1041.93 2256.96 1006.49 2548.19L1003.71 2570.43Z" fill="#3B3640"></path><path d="M694.419 1406.2L692.333 1208.11L468.533 1207.42L471.313 1406.2" fill="white"></path><path d="M690.942 1406.2L688.857 1211.59L472.007 1210.89L474.787 1406.2H467.837L465.057 1203.94L695.807 1204.64L697.892 1406.2H690.942Z" fill="#3B3640"></path><path d="M358.023 889.079C348.994 880.293 337.472 874.509 325.032 872.518C312.591 870.528 299.84 872.428 288.52 877.958C277.145 883.561 267.251 891.768 259.643 901.913C252.035 912.057 246.926 923.85 244.733 936.34C241.123 961.38 245.501 986.92 257.244 1009.32C269.659 1035.84 290.406 1057.56 316.322 1071.19C342.507 1084.61 372.815 1087.6 401.115 1079.53C365.936 1022.62 350.77 955.59 358.023 889.079Z" fill="white"></path><path d="M369.84 1087.17C350.739 1087.27 331.898 1082.74 314.932 1073.97C288.546 1059.97 267.17 1038.11 253.77 1011.41C241.57 988.15 237.415 961.51 241.954 935.65C244.098 922.6 249.312 910.252 257.167 899.618C265.022 888.983 275.292 880.368 287.131 874.483C299.217 868.784 312.76 866.928 325.933 869.165C339.107 871.402 351.277 877.625 360.804 886.994V889.774C353.6 955.31 368.524 1021.37 403.201 1077.44L405.286 1081.61H401.116C391.056 1085.13 380.496 1087.01 369.84 1087.17ZM314.932 875.178C306.298 875.285 297.778 877.178 289.911 880.739C279.077 886.255 269.671 894.211 262.435 903.981C255.198 913.75 250.329 925.07 248.209 937.04C244.349 961.33 248.496 986.21 260.025 1007.93C272.666 1033.54 293.109 1054.47 318.408 1067.71C342.115 1080.13 369.507 1083.59 395.556 1077.44C361.905 1021.24 347.507 955.6 354.549 890.469C343.846 880.396 329.628 874.908 314.932 875.178Z" fill="#3B3640"></path><path d="M354.549 805.672C346.209 943.99 363.584 1142.08 486.605 1233.83C517.125 1256.64 553.97 1269.43 592.061 1270.42C630.152 1271.42 667.614 1260.58 699.285 1239.39C836.901 1146.95 836.901 916.882 820.22 774.394C817.078 744.807 806.3 716.544 788.944 692.377C654.108 502.626 381.655 553.365 354.549 805.672Z" fill="white"></path><path d="M597.114 1274.14C556.511 1274.14 517.002 1260.97 484.519 1236.61C346.208 1133.05 345.513 900.2 351.073 804.977C363.584 690.292 428.222 606.885 524.136 581.167C620.05 555.45 726.39 598.544 791.723 690.292C809.299 714.923 820.302 743.63 823.694 773.699C839.68 907.151 844.545 1146.25 701.369 1242.17C670.68 1263.19 634.309 1274.34 597.114 1274.14ZM358.023 805.672C352.463 900.2 353.158 1129.57 488.689 1231.05C518.608 1253.41 554.721 1265.96 592.061 1266.95C629.4 1267.95 666.131 1257.35 697.199 1236.61C843.155 1138.61 829.255 880.739 816.744 774.394C813.521 745.581 802.995 718.068 786.163 694.462C722.915 604.799 620.745 563.096 526.221 588.118C431.697 613.14 369.839 693.767 358.023 805.672Z" fill="#3B3640"></path><path d="M642.29 996.81L639.51 990.56C650.804 984.24 660.916 976.01 669.397 966.23C652.868 955.76 638.816 941.82 628.215 925.38C617.614 908.933 610.719 890.378 608.007 871.002C605.296 851.625 606.834 831.89 612.514 813.167C618.194 794.444 627.88 777.182 640.9 762.578L646.461 767.444C634.021 781.528 624.783 798.142 619.383 816.141C613.984 834.14 612.551 853.097 615.184 871.703C617.99 890.374 624.94 908.18 635.523 923.82C646.106 939.45 660.055 952.52 676.347 962.06L679.822 964.15L677.042 967.62C667.617 979.67 655.781 989.61 642.29 996.81Z" fill="#3B3640"></path><path d="M649.935 1167.8C579.737 1167.8 563.056 1073.97 563.056 1073.27V1069.1L721.523 1062.84V1066.32C720.133 1070.49 712.488 1167.8 649.935 1167.8ZM570.702 1075.36C574.177 1092.73 592.943 1160.85 649.935 1160.85C706.928 1160.85 711.098 1087.87 713.183 1069.8L570.702 1075.36Z" fill="#3B3640"></path><path d="M705.967 880.094C717.867 880.094 727.513 870.447 727.513 858.547C727.513 846.647 717.867 837 705.967 837C694.068 837 684.421 846.647 684.421 858.547C684.421 870.447 694.068 880.094 705.967 880.094Z" fill="#3B3640"></path><path d="M523.967 880.094C535.866 880.094 545.513 870.447 545.513 858.547C545.513 846.647 535.866 837 523.967 837C512.067 837 502.421 846.647 502.421 858.547C502.421 870.447 512.067 880.094 523.967 880.094Z" fill="#3B3640"></path><path d="M1379.91 1216.5L1313.27 1219.87C1274.17 1221.85 1244.08 1255.16 1246.06 1294.26L1270.18 1770.47C1272.16 1809.57 1305.47 1839.66 1344.57 1837.68L1411.21 1834.31C1450.31 1832.33 1480.4 1799.02 1478.42 1759.92L1454.3 1283.71C1452.32 1244.61 1419.02 1214.51 1379.91 1216.5Z" fill="#DFE1E4"></path><path d="M1342.19 1840.62C1323.17 1840.65 1304.85 1833.39 1291.02 1820.33C1277.19 1807.27 1268.89 1789.41 1267.82 1770.42L1243.49 1294.3C1242.81 1284.57 1244.12 1274.81 1247.35 1265.6C1250.58 1256.4 1255.65 1247.95 1262.26 1240.78C1268.76 1233.42 1276.65 1227.42 1285.47 1223.13C1294.3 1218.83 1303.89 1216.33 1313.69 1215.76L1380.41 1212.98C1390.18 1212.41 1399.97 1213.78 1409.21 1217.01C1418.45 1220.24 1426.96 1225.25 1434.25 1231.78C1441.55 1238.3 1447.49 1246.19 1451.73 1255.02C1455.96 1263.84 1458.42 1273.41 1458.95 1283.18L1483.28 1759.3C1483.75 1769.06 1482.28 1778.83 1478.97 1788.03C1475.66 1797.23 1470.56 1805.69 1463.98 1812.92C1457.39 1820.16 1449.45 1826.02 1440.59 1830.17C1431.74 1834.33 1422.16 1836.7 1412.39 1837.14L1345.66 1840.62H1342.19ZM1274.77 1769.72C1275.21 1778.58 1277.4 1787.26 1281.21 1795.27C1285.01 1803.28 1290.36 1810.46 1296.95 1816.4C1303.53 1822.34 1311.23 1826.93 1319.59 1829.89C1327.94 1832.85 1336.81 1834.14 1345.66 1833.67L1412.39 1830.19C1430.15 1829.29 1446.84 1821.41 1458.81 1808.26C1470.79 1795.11 1477.08 1777.76 1476.33 1759.99L1452 1283.18C1450.93 1265.41 1442.87 1248.79 1429.59 1236.94C1416.31 1225.09 1398.88 1218.98 1381.11 1219.93L1314.39 1222.71C1296.57 1223.8 1279.87 1231.78 1267.82 1244.95C1261.83 1251.5 1257.21 1259.17 1254.23 1267.53C1251.25 1275.88 1249.96 1284.75 1250.44 1293.6L1274.77 1769.72Z" fill="#3B3640"></path><path d="M1601.88 928L1122.93 952.26L1138.79 1265.47L1617.75 1241.21L1601.88 928Z" fill="#DFE1E4"></path><path d="M1135.76 1267.89L1119.08 948.16L1604.91 923.14L1621.59 1243.56L1135.76 1267.89ZM1126.73 954.42L1142.02 1260.94L1613.94 1236.61L1598.65 930.78L1126.73 954.42Z" fill="#3B3640"></path><path d="M1138.03 1266.01C1172.53 1264.26 1196.94 1192.61 1192.55 1105.96C1188.16 1019.32 1156.64 950.5 1122.13 952.25C1087.63 953.99 1063.22 1025.65 1067.61 1112.29C1072 1198.94 1103.52 1267.76 1138.03 1266.01Z" fill="white"></path><path d="M1137.85 1267.89C1101.01 1267.89 1069.73 1199.77 1064.87 1111.5C1062.35 1073.24 1066.83 1034.85 1078.08 998.2C1088.5 966.93 1104.49 948.85 1122.56 948.16C1140.63 947.46 1158.7 963.45 1172.6 993.34C1187.28 1028.66 1195.52 1066.32 1196.93 1104.55C1201.79 1194.21 1176.07 1266.5 1139.24 1267.89H1137.85ZM1071.82 1110.8C1075.99 1194.21 1106.57 1263.02 1138.54 1260.94C1170.51 1258.85 1194.15 1187.96 1189.98 1105.24C1188.8 1067.73 1180.79 1030.75 1166.34 996.12C1153.83 969.01 1137.85 953.72 1123.25 955.11C1108.66 956.5 1094.06 972.49 1084.33 1000.98C1074.6 1029.48 1069.73 1069.8 1071.82 1110.8Z" fill="#3B3640"></path><path d="M1534.71 1244.26C1534.71 1244.26 1470.07 1165.71 1472.16 1076.75C1474.24 987.78 1518.72 931.48 1518.72 931.48L1888.48 772.309L1921.15 1315.15L1534.71 1244.26Z" fill="#DFE1E4"></path><path d="M1925.32 1320.02L1532.63 1247.73V1246.34C1531.93 1245.65 1467.29 1165.71 1469.38 1076.75C1471.46 987.78 1515.25 930.78 1516.64 928.7H1518.03L1891.96 768.139L1925.32 1320.02ZM1536.8 1240.78L1917.67 1310.98L1885.01 777.87L1520.81 934.26C1515.95 939.82 1478.41 989.17 1475.63 1076.75C1472.85 1164.32 1529.15 1231.74 1536.8 1240.78Z" fill="#3B3640"></path><path d="M1928 1321.53C1979.76 1318.91 2015.41 1192.47 2007.65 1039.12C1999.88 885.764 1951.63 763.574 1899.87 766.195C1848.12 768.817 1812.46 895.259 1820.23 1048.61C1828 1201.96 1876.25 1324.15 1928 1321.53Z" fill="#3B3640"></path><path d="M1456.34 1315.31L1454.95 1315.38C1440 1316.14 1428.5 1328.87 1429.25 1343.82L1432.84 1414.63C1433.6 1429.58 1446.33 1441.09 1461.28 1440.33L1462.67 1440.26C1477.62 1439.5 1489.13 1426.77 1488.37 1411.82L1484.78 1341.01C1484.03 1326.06 1471.29 1314.55 1456.34 1315.31Z" fill="#3B3640"></path><path d="M375.4 1377.01C-4.78238 1451.38 84.8769 1817.68 5.64303 2061.65C-34.6688 2183.28 169.671 2163.13 232.223 2167.99C352.464 2179.11 422.662 2116.56 423.357 2132.54C429.612 2209 458.804 2484.94 458.804 2484.94L353.159 2544.02C353.159 2544.02 891.113 2570.43 1000.23 2570.43C1040.54 2416.82 1052.36 2087.36 1063.48 1956C1089.89 1634.18 1009.27 1404.81 758.362 1377.71C726.391 1472.24 649.937 1555.64 602.675 1625.15C510.931 1550.78 462.279 1456.25 375.4 1377.01Z" fill="#0E639D"></path><path d="M1185.11 1470.84C1325.51 1299.86 1742.53 1371.45 1295.62 1483.36C1328.98 1476.41 1406.13 1449.3 1414.47 1504.9C1415.86 1522.28 1409.61 1549.39 1389.45 1552.17C1431.15 1550.78 1457.56 1610.55 1424.9 1637.66C1463.12 1627.93 1480.5 1684.92 1447.83 1699.52C1402.66 1721.07 1298.4 1793.35 1243.49 1822.55C1232.37 1823.24 1198.32 1823.24 1192.06 1814.2C1042.63 1600.13 950.881 1714.81 1185.11 1470.84Z" fill="white"></path><path d="M1230.98 1826.02C1217.08 1826.02 1194.84 1824.63 1189.28 1816.29C1157.64 1770.68 1120 1729.53 1077.38 1693.96C1053.75 1673.11 1039.85 1661.29 1039.15 1643.92C1038.46 1626.54 1068.34 1586.92 1148.97 1502.82L1182.33 1468.06C1259.48 1374.93 1424.89 1350.6 1481.89 1372.84C1497.87 1379.1 1500.65 1387.44 1499.96 1393.69C1498.57 1415.94 1452 1440.96 1366.51 1467.37C1378.66 1466.75 1390.72 1469.65 1401.26 1475.71C1405.87 1479.05 1409.73 1483.3 1412.6 1488.21C1415.47 1493.11 1417.29 1498.56 1417.94 1504.21C1418.64 1518.8 1415.16 1540.35 1402.65 1550.08C1411.08 1552.81 1418.78 1557.42 1425.16 1563.56C1431.54 1569.7 1436.44 1577.21 1439.49 1585.53C1442.69 1593.23 1443.86 1601.61 1442.88 1609.89C1441.91 1618.16 1438.83 1626.05 1433.93 1632.79C1441.21 1633.09 1448.21 1635.66 1453.95 1640.15C1459.69 1644.64 1463.87 1650.82 1465.9 1657.82C1469.49 1666.04 1469.76 1675.34 1466.66 1683.76C1463.55 1692.19 1457.3 1699.08 1449.22 1703C1425.59 1714.12 1384.58 1739.83 1344.97 1764.86C1305.35 1789.88 1271.29 1811.42 1244.88 1825.33H1243.49C1239.39 1826.26 1235.16 1826.49 1230.98 1826.02ZM1428.37 1372.15C1358.87 1372.15 1248.36 1399.25 1187.89 1472.93L1154.53 1507.68C1076.68 1588.31 1044.71 1621.67 1046.1 1643.92C1047.49 1666.16 1060 1669.63 1082.24 1688.4C1125.07 1724.5 1162.93 1766.1 1194.84 1812.12C1199.01 1818.38 1225.42 1819.77 1242.1 1819.07C1268.51 1805.17 1305.35 1781.54 1341.49 1759.3C1377.63 1737.05 1422.11 1707.86 1446.44 1696.74C1470.77 1685.62 1463.82 1673.11 1459.65 1660.6C1457.7 1653.51 1453.02 1647.48 1446.64 1643.84C1440.25 1640.19 1432.69 1639.22 1425.59 1641.14H1422.81L1420.72 1635.57L1422.81 1634.18C1429.16 1628.46 1433.53 1620.86 1435.28 1612.49C1437.03 1604.12 1436.07 1595.41 1432.54 1587.62C1426.28 1570.93 1410.99 1554.25 1389.45 1554.95V1548C1406.82 1545.91 1413.08 1520.89 1411.69 1504.21C1410.34 1494.81 1405.35 1486.32 1397.79 1480.58C1377.63 1466.67 1338.02 1476.41 1312.3 1482.66L1297.01 1486.14L1294.92 1479.19C1440.19 1443.04 1493.01 1411.07 1493.7 1393C1494.4 1386.05 1486.75 1381.18 1479.8 1378.4C1463.13 1373.46 1445.74 1371.34 1428.37 1372.15Z" fill="#3B3640"></path><path d="M1387.9 1548.85L1308.68 1563.82L1309.97 1570.65L1389.19 1555.68L1387.9 1548.85Z" fill="#3B3640"></path><path d="M1361.65 1664.77L1360.26 1657.82C1383.3 1652.1 1405.67 1643.94 1426.98 1633.49L1429.76 1639.74C1407.91 1650.24 1385.1 1658.62 1361.65 1664.77Z" fill="#3B3640"></path><path d="M321.187 2189.54C575.569 1942.1 857.056 1693.96 1054.44 1586.92C1147.58 1536.88 1254.61 1751.65 1230.98 1838.53C1221.95 1871.89 773.653 2300.75 458.108 2489.11" fill="#E7F0F6"></path><path d="M459.498 2492.58L456.023 2486.33C770.177 2298.66 1219.17 1869.12 1227.51 1837.84C1244.19 1776.67 1194.15 1652.26 1133.68 1603.6C1114.91 1589.01 1085.72 1574.41 1056.53 1590.4C889.723 1680.06 636.036 1887.88 323.272 2191.62L318.407 2186.76C536.647 1974.76 841.766 1698.13 1053.05 1584.14C1078.77 1570.24 1108.66 1575.1 1137.85 1598.04C1201.79 1648.78 1251.83 1775.28 1234.46 1839.23C1228.9 1858.69 1101.71 1984.5 962.001 2108.22C852.191 2204.83 641.597 2384.15 459.498 2492.58Z" fill="#3B3640"></path><path d="M401.809 2111H394.858C398.334 2090.84 401.114 2070.68 404.589 2049.14C424.745 1929.59 444.901 1806.56 378.178 1716.2L383.738 1712.03C451.851 1804.47 430.305 1935.15 411.539 2050.53C408.064 2071.38 404.589 2091.53 401.809 2111Z" fill="white"></path><path d="M1137.85 1941.4C1011.35 1852.43 962.001 1696.04 949.491 1650.17L956.441 1648.09C968.261 1693.26 1017.61 1848.26 1141.32 1935.84L1137.85 1941.4Z" fill="#3B3640"></path><path fill-rule="evenodd" clip-rule="evenodd" d="M1177.42 1840C1189.02 1840 1198.42 1830.6 1198.42 1819C1198.42 1807.4 1189.02 1798 1177.42 1798C1165.82 1798 1156.42 1807.4 1156.42 1819C1156.42 1830.6 1165.82 1840 1177.42 1840ZM1177.42 1848C1193.44 1848 1206.42 1835.02 1206.42 1819C1206.42 1802.98 1193.44 1790 1177.42 1790C1161.4 1790 1148.42 1802.98 1148.42 1819C1148.42 1835.02 1161.4 1848 1177.42 1848Z" fill="#3B3640"></path><path d="M694.42 1332.53C624.916 1367.28 538.732 1366.59 471.314 1342.26C467.144 1381.18 441.428 1442.35 441.428 1442.35C441.428 1442.35 547.768 1414.55 590.165 1467.37C633.257 1415.24 723.611 1452.08 723.611 1452.08C723.611 1452.08 709.015 1378.4 694.42 1332.53Z" fill="white"></path><path d="M590.163 1472.93L587.383 1470.15C547.071 1419.41 443.512 1445.13 442.122 1445.13L435.171 1447.21L437.951 1440.96C438.646 1440.26 463.668 1379.79 467.838 1342.26V1337.39L472.008 1339.48C544.291 1365.2 628.39 1361.03 691.638 1329.75L695.808 1327.66V1331.83C710.404 1377.01 725.694 1450.69 725.694 1451.38L727.084 1457.64L720.829 1454.86C720.134 1454.86 632.56 1420.11 591.553 1470.15L590.163 1472.93ZM501.199 1431.23C532.476 1431.23 567.922 1437.48 590.163 1462.5C629.085 1420.11 697.893 1439.57 718.744 1446.52C715.269 1428.45 703.453 1374.93 692.333 1337.39C628.39 1367.98 546.376 1371.45 474.093 1347.12C469.923 1379.1 453.242 1421.5 446.987 1437.48C464.807 1433.61 482.966 1431.52 501.199 1431.23Z" fill="#3B3640"></path><path d="M599.2 1625.84C592.958 1572.31 589.478 1518.48 588.774 1464.59H595.725C596.407 1518.02 599.887 1571.38 606.15 1624.45L599.2 1625.84Z" fill="#3B3640"></path><path d="M605.453 1725.93L602.673 1722.46C505.369 1611.94 406.674 1504.21 310.76 1400.64L315.625 1395.78C410.845 1498.65 508.844 1604.99 604.758 1714.81C682.602 1610.55 756.97 1501.43 825.083 1390.22L830.643 1394.39C761.835 1506.29 686.772 1616.81 608.233 1722.46L605.453 1725.93Z" fill="white"></path><path d="M410.003 1408.62L350.094 1439.54L353.282 1445.72L413.191 1414.8L410.003 1408.62Z" fill="white"></path><path d="M471.931 1483.32L422.329 1515.41L426.104 1521.25L475.707 1489.16L471.931 1483.32Z" fill="white"></path><path d="M534.853 1573.65L503.072 1604.77L507.935 1609.74L539.716 1578.61L534.853 1573.65Z" fill="white"></path><path d="M608.929 1720.37H601.979C602.81 1689.99 601.881 1659.59 599.199 1629.32H606.149C608.795 1659.59 609.723 1689.99 608.929 1720.37Z" fill="white"></path><path d="M695.809 1600.82C680.608 1589.77 665.992 1577.94 652.022 1565.37L656.887 1560.51C670.593 1572.89 684.98 1584.49 699.979 1595.26L695.809 1600.82Z" fill="white"></path><path d="M719.356 1472.97L714.908 1478.32L758.685 1514.71L763.133 1509.36L719.356 1472.97Z" fill="white"></path><path d="M755.826 1397.81L751.509 1403.25L795.575 1438.18L799.892 1432.73L755.826 1397.81Z" fill="white"></path><path d="M402.505 2064.43C283.655 2023.42 134.918 2017.86 15.3724 2049.83L13.2874 2042.88C134.223 2010.91 284.35 2016.47 405.285 2058.17L402.505 2064.43Z" fill="white"></path><path d="M408.065 2039.4C342.037 1974.07 100.862 1960.17 29.2733 2004.65L25.7981 1998.4C100.167 1952.52 344.123 1965.73 412.931 2034.54L408.065 2039.4Z" fill="white"></path><path d="M54.9898 2152L48.7348 2149.92C47.7248 2147.53 46.5638 2145.21 45.2598 2142.97C36.9198 2126.98 18.8485 2094.31 52.9048 2035.23L59.1608 2038.71C27.1889 2094.31 43.1748 2124.9 51.5148 2139.49C59.8558 2154.09 56.3798 2148.53 54.9898 2152Z" fill="white"></path><path d="M135.614 2180.5C130.749 2136.71 136.309 2068.6 161.33 2023.42L167.586 2026.89C143.26 2070.68 137.699 2136.71 142.564 2179.11L135.614 2180.5Z" fill="white"></path><path d="M228.748 2181.89L223.188 2178.42C248.904 2132.54 265.584 2076.24 265.584 2031.76H272.535C272.535 2077.63 255.159 2134.63 228.748 2181.89Z" fill="white"></path><path d="M323.272 2170.77L318.407 2165.91C346.208 2140.19 365.669 2088.75 367.754 2054H374.705C371.924 2090.84 351.769 2144.36 323.272 2170.77Z" fill="white"></path><path d="M304.506 775.785C286.435 866.837 335.088 981.52 386.52 962.06C437.952 942.6 360.109 793.161 506.065 800.112C1226.12 762.578 882.772 150.925 763.227 372.649C612.405 650.674 378.18 406.707 304.506 775.785Z" fill="#3B3640"></path><path d="M734.73 682.646L731.95 677.086C770.797 656.538 802.353 624.496 822.304 585.338C841.747 545.958 848.776 501.603 842.46 458.142L849.411 456.752C856.158 501.643 848.876 547.523 828.56 588.118C808.012 628.718 775.176 661.799 734.73 682.646Z" fill="white"></path><path d="M608.929 711.839L606.149 705.583C642.256 688.177 673.808 662.591 698.299 630.859C722.791 599.127 739.548 562.122 747.24 522.782L754.191 524.172C746.142 564.558 728.834 602.525 703.629 635.089C678.423 667.653 646.007 693.925 608.929 711.839Z" fill="white"></path><path d="M2413.77 135.5L2403.91 401.758C2403.87 402.537 2403.54 401.348 2402.4 400.895L2307.14 352.392L2411.57 133.044C2412.44 131.53 2414.23 134.353 2414.14 135.91L2413.77 135.5Z" fill="#F384AD"></path><path d="M2405.42 402.622C2405.42 402.622 2405.83 402.254 2405.88 401.476L2415.74 135.217C2415.82 133.66 2414.44 130.469 2412.52 129.973C2411.37 129.52 2410.14 130.624 2409.32 131.36L2304.03 352.215L2400.8 401.588C2400.8 401.588 2400.8 401.588 2401.16 401.999C2401.53 402.409 2402.64 403.641 2403.87 402.537C2403.87 402.537 2404.69 401.801 2405.1 401.433L2405.42 402.622ZM2411.41 136.151L2401.74 398.517L2309.15 351.331L2411.41 136.151Z" fill="#B5466F"></path><path d="M2237 336.854L2310.93 340.121C2310.93 340.121 2311.34 339.753 2311.75 339.385L2411.37 129.52C2412.19 128.784 2411.18 125.996 2410.72 127.142L2236.31 335.255C2235.49 335.991 2236.23 336.811 2237 336.854Z" fill="#F384AD"></path><path d="M2314.04 340.285L2413.67 130.427C2414.53 128.913 2414.29 126.167 2412.78 125.304C2412.04 124.483 2410.44 125.176 2409.62 125.912L2235.21 334.024C2234.39 334.76 2234.3 336.317 2234.63 337.506C2235.36 338.327 2236.1 339.148 2237.25 339.601L2311.18 342.854C2312.73 342.946 2313.55 342.21 2314 341.064L2314.04 340.285ZM2406.82 134.34L2310.65 338.155L2238.69 334.605L2407.23 133.972L2406.82 134.34Z" fill="#B5466F"></path><path d="M1731.99 11.5622L1823.5 261.796C1823.78 262.524 1823.72 261.292 1824.67 260.508L1900.32 184.989L1733.33 8.54741C1732.04 7.37333 1731.2 10.6115 1731.77 12.0662L1731.99 11.5622Z" fill="#F384AD"></path><path d="M1822.32 263.085C1822.32 263.085 1821.82 262.861 1821.54 262.134L1730.03 11.8999C1729.47 10.4452 1729.8 6.98364 1731.48 5.91856C1732.43 5.13404 1733.94 5.80414 1734.95 6.2509L1903.22 183.863L1826.41 260.674C1826.41 260.674 1826.41 260.674 1826.18 261.178C1825.96 261.682 1825.29 263.194 1823.78 262.524C1823.78 262.524 1822.77 262.077 1822.27 261.854L1822.32 263.085ZM1734.44 11.4526L1824.56 258.045L1898.08 184.599L1734.44 11.4526Z" fill="#B5466F"></path><path d="M1962.25 148.576L1892.93 174.486C1892.93 174.486 1892.42 174.263 1891.92 174.04L1732.43 5.13364C1731.42 4.68688 1731.53 1.72041 1732.31 2.67112L1962.41 146.84C1963.42 147.287 1962.97 148.295 1962.25 148.576Z" fill="#F384AD"></path><path d="M1890.02 175.601L1730.53 6.70419C1729.24 5.5301 1728.62 2.84419 1729.79 1.55573C1730.24 0.547835 1731.97 0.713994 1732.98 1.16075L1963.08 145.33C1964.09 145.777 1964.65 147.231 1964.71 148.463C1964.26 149.471 1963.81 150.479 1962.86 151.263L1893.54 177.161C1892.1 177.726 1891.09 177.279 1890.3 176.329L1890.02 175.601ZM1738.24 8.31578L1892.59 172.529L1959.95 146.956L1737.74 8.09237L1738.24 8.31578Z" fill="#B5466F"></path><path d="M3277.28 1270.82L3134.82 1367.54C3134.4 1367.81 3134.9 1367.19 3134.7 1366.42L3123.52 1298.25L3277.72 1268.74C3278.84 1268.61 3278.06 1270.62 3277.21 1271.17L3277.28 1270.82Z" fill="#F384AD"></path><path d="M3134.95 1368.65C3134.95 1368.65 3135.3 1368.73 3135.72 1368.45L3278.18 1271.74C3279.03 1271.19 3280.16 1269.25 3279.68 1268.06C3279.48 1267.29 3278.44 1267.07 3277.74 1266.92L3122.43 1296.56L3133.72 1365.85C3133.72 1365.85 3133.72 1365.85 3133.65 1366.2C3133.58 1366.55 3133.36 1367.59 3134.4 1367.81C3134.4 1367.81 3135.1 1367.96 3135.45 1368.03L3134.95 1368.65ZM3276.04 1269.84L3135.68 1365.17L3124.84 1298.89L3276.04 1269.84Z" fill="#B5466F"></path><path d="M3104.79 1255.77L3131.36 1295.53C3131.36 1295.53 3131.71 1295.6 3132.06 1295.68L3279.48 1267.29C3280.18 1267.43 3281.24 1265.83 3280.47 1266.04L3105.35 1254.8C3104.66 1254.65 3104.51 1255.35 3104.79 1255.77Z" fill="#F384AD"></path><path d="M3132.47 1297.21L3279.89 1268.83C3281.01 1268.7 3282.34 1267.52 3282.21 1266.4C3282.36 1265.71 3281.39 1265.14 3280.69 1264.99L3105.57 1253.75C3104.88 1253.61 3104.03 1254.16 3103.54 1254.78C3103.39 1255.48 3103.25 1256.18 3103.45 1256.95L3130.03 1296.7C3130.58 1297.54 3131.28 1297.69 3132.05 1297.49L3132.47 1297.21ZM3275.23 1266.76L3132.28 1294.63L3106.6 1255.79L3275.58 1266.83L3275.23 1266.76Z" fill="#B5466F"></path><path d="M3083.7 741.441L2965.29 937.25C2964.94 937.817 2965.19 936.788 2964.51 935.97L2913.21 859.84L3083.07 738.68C3084.35 737.903 3084.52 740.769 3083.81 741.903L3083.7 741.441Z" fill="#F384AD"></path><path d="M2966.07 938.529C2966.07 938.529 2966.53 938.424 2966.89 937.858L3085.3 742.049C3086.01 740.915 3086.3 737.944 3085.06 736.769C3084.39 735.951 3083.01 736.266 3082.08 736.477L2910.95 858.412L2963.02 935.824C2963.02 935.824 2963.02 935.824 2963.13 936.285C2963.23 936.747 2963.55 938.132 2964.93 937.816C2964.93 937.816 2965.86 937.606 2966.32 937.501L2966.07 938.529ZM3081.65 740.945L2965.02 933.913L2915.16 859.88L3081.65 740.945Z" fill="#B5466F"></path><path d="M2867.03 818.933L2921.18 852.207C2921.18 852.207 2921.64 852.102 2922.1 851.997L3084.39 735.951C3085.32 735.74 3085.71 733.222 3084.89 733.894L2867.18 817.443C2866.25 817.653 2866.46 818.577 2867.03 818.933Z" fill="#F384AD"></path><path d="M2923.44 853.626L3085.74 737.588C3087.02 736.811 3087.98 734.649 3087.2 733.37C3086.99 732.447 3085.5 732.3 3084.58 732.511L2866.86 816.06C2865.94 816.27 2865.22 817.403 2864.97 818.432C2865.18 819.355 2865.39 820.278 2866.06 821.096L2920.22 854.361C2921.34 855.075 2922.27 854.865 2923.09 854.193L2923.44 853.626ZM3078.97 737.673L2921.78 850.614L2869.23 817.947L3079.43 737.568L3078.97 737.673Z" fill="#B5466F"></path><path d="M2457.06 2116.4L2316.44 1863.85C2316.04 1863.11 2317.01 1864.03 2318.33 1863.8L2433.98 1855.22L2460.48 2117.44C2460.53 2119.33 2457.28 2117.72 2456.49 2116.23L2457.06 2116.4Z" fill="#F384AD"></path><path d="M2314.55 1863.9C2314.55 1863.9 2314.38 1864.48 2314.78 1865.22L2455.39 2117.77C2456.19 2119.26 2459.27 2121.45 2461.33 2120.82C2462.65 2120.6 2463.17 2118.88 2463.52 2117.74L2436.96 1853.63L2319.43 1862.26C2319.43 1862.26 2319.43 1862.26 2318.85 1862.09C2318.28 1861.91 2316.56 1861.39 2316.04 1863.11C2316.04 1863.11 2315.7 1864.25 2315.52 1864.82L2314.55 1863.9ZM2458.89 2114.47L2320.27 1865.64L2432.71 1857.33L2458.89 2114.47Z" fill="#B5466F"></path><path d="M2507.78 1830.18L2437.36 1868.73C2437.36 1868.73 2437.19 1869.31 2437.01 1869.88L2462.65 2120.6C2462.3 2121.74 2464.81 2123.76 2464.59 2122.44L2509.32 1831.27C2509.67 1830.13 2508.53 1829.78 2507.78 1830.18Z" fill="#F384AD"></path><path d="M2434.39 1870.33L2460.01 2121.05C2460.06 2122.94 2461.83 2125.35 2463.72 2125.3C2464.86 2125.65 2465.96 2124.1 2466.31 2122.96L2511.04 1831.8C2511.39 1830.65 2510.59 1829.16 2509.62 1828.24C2508.48 1827.89 2507.33 1827.54 2506.01 1827.77L2435.6 1866.34C2434.11 1867.12 2433.76 1868.27 2433.99 1869.58L2434.39 1870.33ZM2464.16 2113.57L2438.73 1870.4L2507.48 1833.22L2463.98 2114.14L2464.16 2113.57Z" fill="#B5466F"></path><path d="M2891.9 1627.19L2608.17 1571.97C2607.34 1571.79 2608.67 1571.64 2609.35 1570.49L2677.31 1476.53L2894.9 1625.24C2896.38 1626.42 2893.05 1627.87 2891.4 1627.52L2891.9 1627.19Z" fill="#F384AD"></path><path d="M2606.99 1573.44C2606.99 1573.44 2607.32 1573.95 2608.14 1574.12L2891.88 1629.34C2893.53 1629.7 2897.18 1628.75 2898.04 1626.77C2898.71 1625.62 2897.74 1624.12 2897.09 1623.11L2678.02 1473.22L2608.87 1568.66C2608.87 1568.66 2608.87 1568.66 2608.37 1568.98C2607.87 1569.31 2606.37 1570.29 2607.34 1571.79C2607.34 1571.79 2607.99 1572.79 2608.32 1573.3L2606.99 1573.44ZM2891.6 1624.55L2612.01 1570.19L2678.11 1478.86L2891.6 1624.55Z" fill="#B5466F"></path><path d="M2705.73 1403.96L2689.83 1482.65C2689.83 1482.65 2690.15 1483.15 2690.48 1483.65L2898.71 1625.62C2899.36 1626.62 2902.52 1626 2901.37 1625.32L2707.56 1403.48C2706.91 1402.48 2705.9 1403.13 2705.73 1403.96Z" fill="#F384AD"></path><path d="M2689.13 1485.95L2897.36 1627.93C2898.84 1629.11 2901.82 1629.31 2903 1627.83C2904 1627.18 2903.53 1625.35 2902.88 1624.35L2709.06 1402.51C2708.41 1401.5 2706.76 1401.15 2705.43 1401.3C2704.42 1401.95 2703.42 1402.6 2702.74 1403.75L2686.86 1482.45C2686.5 1484.09 2687.15 1485.1 2688.3 1485.78L2689.13 1485.95ZM2894.31 1619.94L2691.98 1482.68L2707.85 1406.14L2894.64 1620.44L2894.31 1619.94Z" fill="#B5466F"></path><path d="M2329.21 399.281C2301.42 547.369 2178.16 856.251 1907.42 907.07" stroke="black" stroke-width="10" stroke-dasharray="25 25"></path><path d="M1903.41 935.564C1981.99 807.003 2097.4 495.105 1930.44 276.002" stroke="black" stroke-width="10" stroke-dasharray="25 25"></path><path d="M1980.87 981.448C2068.33 900.128 2294.08 757.618 2497.41 838.134C2751.57 938.78 2780.93 947.384 2888.21 914.654" stroke="black" stroke-width="10" stroke-dasharray="25 25"></path><path d="M1957.42 1119C2028.09 1095.67 2201.42 1085 2329.42 1229C2457.42 1373 2561.42 1427.67 2597.42 1437" stroke="black" stroke-width="10" stroke-dasharray="25 25"></path><path d="M1921.42 1237C2000.09 1228.33 2168.22 1275 2211.42 1531C2265.42 1851 2391.42 1805 2399.42 1797" stroke="black" stroke-width="10" stroke-dasharray="25 25"></path><path d="M1993.5 1068.3C2059.69 987.297 2274.58 893.295 2604.61 1165.29C3017.15 1505.29 3086.99 1336.57 3085.71 1319.69" stroke="black" stroke-width="10" stroke-dasharray="25 25"></path></svg>